<svg xmlns="http://www.w3.org/2000/svg" xmlns:xlink="http://www.w3.org/1999/xlink" width="242" height="242" viewBox="0 0 242 242">
    <defs>
        <circle id="a" cx="36" cy="36" r="36"/>
        <path id="c" d="M17.997 24.866l-11.05-6.53L17.997 0l11.05 18.335-11.05 6.531zm0 11.134L6.947 20.43l11.05 6.525 11.056-6.525L17.997 36z"/>
    </defs>
    <g fill="none" fill-rule="evenodd">
        <path stroke="#5D4190" stroke-width="2" d="M211.968 198.42C190.042 224.394 157.218 241 121 241 54.512 241 1 187.272 1 121 1 54.724 54.512 1 121 1m104.516 180a119.31 119.31 0 0 0 9.678-19.355L225.516 181zM241 121c-.129-7.262-.75-14.375-1.935-21.29L241 121zm-27.097-75.484a126.387 126.387 0 0 0-15.484-15.484l15.484 15.484z" opacity=".2"/>
        <g transform="translate(1 1)">
            <mask id="b" fill="#fff">
                <use xlink:href="#a"/>
            </mask>
            <use fill="#D8D8D8" xlink:href="#a"/>
            <g fill="#FFF" stroke="#090932" stroke-width="2" mask="url(#b)">
                <rect width="70" height="70" x="1" y="1" rx="35"/>
            </g>
            <g mask="url(#b)">
                <path d="M0 0h72v72H0z"/>
            </g>
        </g>
        <g transform="translate(19 19)">
            <path d="M0 0h36v36H0z"/>
            <mask id="d" fill="#fff">
                <use xlink:href="#c"/>
            </mask>
            <use fill="#FFF" fill-rule="nonzero" xlink:href="#c"/>
            <g fill="#090932" mask="url(#d)">
                <path d="M0 0h36v36H0z"/>
            </g>
            <path fill="#FFF" fill-opacity=".01" d="M0 0h1.5v1.5H0zM34.5 34.5H36V36h-1.5z"/>
        </g>
    </g>
</svg>
