<svg xmlns="http://www.w3.org/2000/svg" xmlns:xlink="http://www.w3.org/1999/xlink" width="242" height="242" viewBox="0 0 242 242">
    <defs>
        <circle id="a" cx="36" cy="36" r="36"/>
        <path id="c" d="M18 26.293a8.274 8.274 0 0 0 6.344-2.953l6.279 5.285A16.463 16.463 0 0 1 18 34.5C8.887 34.5 1.5 27.112 1.5 18 1.5 8.887 8.887 1.5 18 1.5v8.207a8.293 8.293 0 0 0 0 16.586zm7.166-4.117c.242-.414.449-.851.617-1.307l7.703 2.839a16.427 16.427 0 0 1-1.229 2.6l-7.091-4.132zM26.293 18c0-.491-.043-.972-.125-1.44l8.083-1.426A16.6 16.6 0 0 1 34.5 18h-8.207zm-1.918-5.304a8.347 8.347 0 0 0-1.018-1.027l5.3-6.264a16.6 16.6 0 0 1 2.026 2.042l-6.308 5.249z"/>
    </defs>
    <g fill="none" fill-rule="evenodd">
        <path stroke="#5D4190" stroke-width="2" d="M211.968 198.42C190.042 224.394 157.218 241 121 241 54.512 241 1 187.272 1 121 1 54.724 54.512 1 121 1m104.516 180a119.31 119.31 0 0 0 9.678-19.355L225.516 181zM241 121c-.129-7.262-.75-14.375-1.935-21.29L241 121zm-27.097-75.484a126.387 126.387 0 0 0-15.484-15.484l15.484 15.484z" opacity=".2"/>
        <g transform="translate(1 1)">
            <mask id="b" fill="#fff">
                <use xlink:href="#a"/>
            </mask>
            <use fill="#D8D8D8" xlink:href="#a"/>
            <g fill="#FFF" stroke="#090932" stroke-width="2" mask="url(#b)">
                <rect width="70" height="70" x="1" y="1" rx="35"/>
            </g>
            <g mask="url(#b)">
                <path d="M0 0h72v72H0z"/>
            </g>
        </g>
        <g transform="translate(19 19)">
            <path d="M0 0h36v36H0z"/>
            <mask id="d" fill="#fff">
                <use xlink:href="#c"/>
            </mask>
            <use fill="#FFF" xlink:href="#c"/>
            <g fill="#090932" mask="url(#d)">
                <path d="M0 0h36v36H0z"/>
            </g>
            <path fill="#FFF" fill-opacity=".01" d="M0 0h1.5v1.5H0zM34.5 34.5H36V36h-1.5z"/>
        </g>
    </g>
</svg>
