<?xml version="1.0" encoding="UTF-8"?>
<svg width="150px" height="36px" viewBox="0 0 150 36" version="1.1" xmlns="http://www.w3.org/2000/svg" xmlns:xlink="http://www.w3.org/1999/xlink">
    <!-- Generator: Sketch 49.3 (51167) - http://www.bohemiancoding.com/sketch -->
    <title>Brand/Logo</title>
    <desc>Created with Sketch.</desc>
    <defs>
        <path d="M5.825625,25.014375 C2.2425,25.014375 0,22.235625 0,18.823125 C0,15.410625 2.2425,12.65625 5.825625,12.65625 C9.40875,12.65625 11.65125,15.410625 11.65125,18.823125 C11.65125,22.235625 9.40875,25.014375 5.825625,25.014375 Z M5.825625,23.38125 C8.33625,23.38125 9.725625,21.23625 9.725625,18.823125 C9.725625,16.434375 8.33625,14.289375 5.825625,14.289375 C3.315,14.289375 1.925625,16.434375 1.925625,18.823125 C1.925625,21.23625 3.315,23.38125 5.825625,23.38125 Z M16.453125,24.721875 L16.453125,16.385625 C16.989375,15.435 18.525,14.50875 19.670625,14.50875 C19.93875,14.50875 20.158125,14.533125 20.3775,14.5575 L20.3775,12.680625 C18.76875,12.680625 17.40375,13.606875 16.453125,14.825625 L16.453125,12.94875 L14.625,12.94875 L14.625,24.721875 L16.453125,24.721875 Z M23.595,11.266875 C24.2775,11.266875 24.81375,10.730625 24.81375,10.048125 C24.81375,9.365625 24.2775,8.805 23.595,8.805 C22.9125,8.805 22.351875,9.365625 22.351875,10.048125 C22.351875,10.730625 22.9125,11.266875 23.595,11.266875 Z M24.496875,24.721875 L24.496875,12.94875 L22.66875,12.94875 L22.66875,24.721875 L24.496875,24.721875 Z M32.881875,29.499375 C30.9075,29.499375 29.5425,29.109375 28.12875,27.72 L29.055,26.40375 C30.03,27.549375 31.2,27.988125 32.881875,27.988125 C34.831875,27.988125 36.684375,27.0375 36.684375,24.55125 L36.684375,22.771875 C35.806875,23.96625 34.36875,24.868125 32.71125,24.868125 C29.64,24.868125 27.470625,22.576875 27.470625,18.774375 C27.470625,14.99625 29.615625,12.65625 32.71125,12.65625 C34.295625,12.65625 35.73375,13.43625 36.684375,14.728125 L36.684375,12.94875 L38.5125,12.94875 L38.5125,24.55125 C38.5125,28.280625 35.758125,29.499375 32.881875,29.499375 Z M33.174375,23.235 C34.6125,23.235 36.02625,22.3575 36.684375,21.33375 L36.684375,16.16625 C36.02625,15.166875 34.6125,14.289375 33.174375,14.289375 C30.785625,14.289375 29.371875,16.16625 29.371875,18.774375 C29.371875,21.358125 30.785625,23.235 33.174375,23.235 Z M43.095,11.266875 C43.7775,11.266875 44.31375,10.730625 44.31375,10.048125 C44.31375,9.365625 43.7775,8.805 43.095,8.805 C42.4125,8.805 41.851875,9.365625 41.851875,10.048125 C41.851875,10.730625 42.4125,11.266875 43.095,11.266875 Z M43.996875,24.721875 L43.996875,12.94875 L42.16875,12.94875 L42.16875,24.721875 L43.996875,24.721875 Z M57.4275,24.721875 L57.4275,16.45875 C57.4275,13.899375 56.135625,12.65625 53.698125,12.65625 C51.91875,12.65625 50.31,13.655625 49.48125,14.655 L49.48125,12.94875 L47.653125,12.94875 L47.653125,24.721875 L49.48125,24.721875 L49.48125,16.1175 C50.188125,15.166875 51.52875,14.289375 52.966875,14.289375 C54.55125,14.289375 55.62375,14.923125 55.62375,17.019375 L55.62375,24.721875 L57.4275,24.721875 Z M64.764375,25.014375 C66.05625,25.014375 66.885,24.673125 67.348125,24.25875 L66.69,21.894375 C66.519375,22.089375 66.080625,22.26 65.6175,22.26 C64.935,22.26 64.545,21.699375 64.545,20.94375 L64.545,15.654375 L66.93375,15.654375 L66.93375,12.94875 L64.545,12.94875 L64.545,9.73125 L61.449375,9.73125 L61.449375,12.94875 L59.499375,12.94875 L59.499375,15.654375 L61.449375,15.654375 L61.449375,21.7725 C61.449375,23.893125 62.595,25.014375 64.764375,25.014375 Z M72.15,24.721875 L72.15,16.94625 C72.661875,16.190625 74.026875,15.605625 75.050625,15.605625 C75.41625,15.605625 75.684375,15.63 75.90375,15.67875 L75.90375,12.65625 C74.44125,12.65625 73.003125,13.509375 72.15,14.533125 L72.15,12.94875 L69.054375,12.94875 L69.054375,24.721875 L72.15,24.721875 Z M89.041875,24.721875 L85.921875,24.721875 L85.921875,23.210625 C84.995625,24.380625 83.728125,25.014375 82.29,25.014375 C79.340625,25.014375 77.07375,22.771875 77.07375,18.823125 C77.07375,14.99625 79.291875,12.65625 82.29,12.65625 C83.679375,12.65625 84.97125,13.24125 85.921875,14.46 L85.921875,12.94875 L89.041875,12.94875 L89.041875,24.721875 Z M83.265,22.26 C84.28875,22.26 85.41,21.699375 85.921875,20.919375 L85.921875,16.775625 C85.41,15.995625 84.28875,15.410625 83.265,15.410625 C81.485625,15.410625 80.266875,16.8 80.266875,18.823125 C80.266875,20.870625 81.485625,22.26 83.265,22.26 Z M93.64875,11.68125 C94.6725,11.68125 95.50125,10.8525 95.50125,9.82875 C95.50125,8.805 94.6725,8.000625 93.64875,8.000625 C92.649375,8.000625 91.820625,8.805 91.820625,9.82875 C91.820625,10.8525 92.649375,11.68125 93.64875,11.68125 Z M95.20875,24.721875 L95.20875,12.94875 L92.113125,12.94875 L92.113125,24.721875 L95.20875,24.721875 Z M101.595,25.014375 C102.8625,25.014375 103.715625,24.673125 104.17875,24.25875 L103.520625,21.894375 C103.35,22.089375 102.91125,22.26 102.448125,22.26 C101.765625,22.26 101.375625,21.699375 101.375625,20.94375 L101.375625,8.46375 L98.28,8.46375 L98.28,21.7725 C98.28,23.893125 99.425625,25.014375 101.595,25.014375 Z" id="path-1"></path>
        <linearGradient x1="33.3371252%" y1="64.1371156%" x2="50%" y2="39.4111321%" id="linearGradient-3">
            <stop stop-color="#2D095E" offset="0%"></stop>
            <stop stop-color="#F6FAF9" stop-opacity="0.0691519475" offset="100%"></stop>
        </linearGradient>
        <linearGradient x1="39.5398852%" y1="89.41659%" x2="50%" y2="42.1550674%" id="linearGradient-4">
            <stop stop-color="#2D095E" offset="0%"></stop>
            <stop stop-color="#F6FAF9" stop-opacity="0.0691519475" offset="100%"></stop>
        </linearGradient>
        <linearGradient x1="61.7027145%" y1="100%" x2="54.6098446%" y2="60.5516918%" id="linearGradient-5">
            <stop stop-color="#2D095E" offset="0%"></stop>
            <stop stop-color="#F6FAF9" stop-opacity="0.0691519475" offset="100%"></stop>
        </linearGradient>
        <linearGradient x1="85.2156541%" y1="71.7399706%" x2="40.2541741%" y2="41.3180442%" id="linearGradient-6">
            <stop stop-color="#2D095E" offset="0%"></stop>
            <stop stop-color="#F6FAF9" stop-opacity="0.0691519475" offset="100%"></stop>
        </linearGradient>
        <path d="M8.95828571,18 C8.95828571,22.9932245 13.0067755,27.0410612 18,27.0410612 C20.7754286,27.0410612 23.2582857,25.7900408 24.9167347,23.8216327 L31.7619592,29.5831837 C28.4621224,33.4996735 23.5220408,35.9888163 18,35.9888163 C8.06473469,35.9888163 0.0111836735,27.9346939 0.0111836735,18 C0.0111836735,8.06473469 8.06473469,0.0111836735 18,0.0111836735 L18,8.95828571 C13.0067755,8.95828571 8.95828571,13.0061224 8.95828571,18 Z M25.8122122,22.552702 C26.076049,22.1010286 26.3020082,21.6245388 26.4852735,21.1273959 L34.8829878,24.222498 C34.5182531,25.2117224 34.0685388,26.1596408 33.5437224,27.0583347 L25.8122122,22.552702 Z M27.0410612,17.9999918 C27.0410612,17.4644 26.9942041,16.9398286 26.904898,16.4297878 L35.7177959,14.8758286 C35.8955102,15.8906041 35.9888163,16.9343592 35.9888163,17.9999918 L27.0410612,17.9999918 Z M24.9499673,12.2171429 C24.613151,11.8127347 24.2415592,11.438449 23.8400898,11.0982857 L29.6193551,4.26840816 C30.4182939,4.94514286 31.1575592,5.68979592 31.8277633,6.49436735 L24.9499673,12.2171429 Z" id="path-7"></path>
    </defs>
    <g id="ðŸ–--new_design" stroke="none" stroke-width="1" fill="none" fill-rule="evenodd">
        <g id="ot_scan_page" transform="translate(-174.000000, -62.000000)">
            <g id="Brand/Logo" transform="translate(174.000000, 62.000000)">
                <g id="Brand/Logotype---Trail-Bold" transform="translate(45.000000, 0.000000)">
                    <mask id="mask-2" fill="white">
                        <use xlink:href="#path-1"></use>
                    </mask>
                    <use id="Mask" fill="#AEAEAE" fill-rule="evenodd" xlink:href="#path-1"></use>
                    <g id="Mixin/Fill/#secondary_600" mask="url(#mask-2)" fill="#230F50" fill-rule="evenodd">
                        <rect id="Box" x="0" y="0" width="105" height="36"></rect>
                    </g>
                </g>
                <g id="Brand/Logomark/Dark---Purple">
                    <path d="M24.9053988,23.7722938 L31.7680501,29.5305135 L31.7678448,29.5308067 L31.768074,29.5305336 L31.775625,29.5368694 L31.841302,29.442691 C32.4724351,28.6806699 33.0394156,27.8676649 33.5363946,27.0119922 L33.564375,26.9718694 L25.8010972,22.491108 C25.5394568,22.9446006 25.2394092,23.373144 24.9053988,23.7722938 Z" id="Combined-Shape" fill="url(#linearGradient-3)" fill-rule="evenodd" opacity="0.3"></path>
                    <path d="M31.2750767,20.3499309 L26.8634598,19.5704189 C26.95257,19.064023 26.9993429,18.5430364 26.9999931,18.0112444 L35.9775,18.0112444 L35.9594034,18.2204861 C35.9489921,19.1120967 35.8720483,20.0016715 35.729236,20.881797 L35.7075,21.1331194 L35.6417029,21.3771171 C35.4745446,22.2512928 35.2424887,23.1118286 34.9474663,23.9515776 L34.8975,24.1368694 L34.8831234,24.1316455 L34.8798407,24.1406725 L34.8823361,24.1313594 L26.4621676,21.0717786 C26.6373759,20.5892193 26.7724827,20.0874233 26.8634598,19.5704189 L31.2750767,20.3499309 Z" id="Combined-Shape" fill="url(#linearGradient-4)" fill-rule="evenodd" opacity="0.3"></path>
                    <path d="M33.564375,9.05061937 L33.5856244,9.09580805 C34.0681549,9.93721823 34.4815431,10.8163619 34.82176,11.724552 L34.8975,11.8856194 L34.9462929,12.0675762 C35.2478427,12.9253438 35.4836725,13.8048156 35.6517558,14.6983649 L35.7075,14.9062444 L26.868686,16.4595794 C26.778916,15.9390858 26.6444411,15.4338931 26.4693577,14.9480975 L30.6758456,13.4196139 L26.4693577,14.9480975 C26.2906829,14.4523371 26.0697166,13.9767779 25.8108125,13.5257734 C25.549769,13.0710421 25.250158,12.6412731 24.9164422,12.2409288 L31.7680476,6.49197735 L31.7678484,6.49169286 L31.7680707,6.49195789 L31.775625,6.48561938 L31.8413239,6.57982917 C32.4724602,7.3418446 33.0394266,8.15485417 33.5364091,9.01051737 L33.564375,9.05061938 Z" id="Combined-Shape" fill="url(#linearGradient-5)" fill-rule="evenodd" opacity="0.3"></path>
                    <path d="M20.3841167,4.7539482 L19.6078145,9.14320244 C19.098603,9.05137089 18.5745014,9.00237641 18.039375,9.00008431 L18.039375,0.089998788 C19.0707566,0.0900000123 20.1001912,0.179042192 21.116214,0.356099369 L21.16125,0.359994375 L21.2059402,0.371978328 C22.1986458,0.550187028 23.1745396,0.811886258 24.1232282,1.15426785 L24.181875,1.16999438 L24.2372331,1.19585022 C25.1774531,1.54239896 26.0869622,1.96720533 26.9561999,2.46578685 L27,2.48624437 L27.0400708,2.51418851 C27.8957811,3.01118544 28.7088204,3.57818986 29.4708713,4.20935202 L29.565,4.27499437 L29.5586666,4.28254093 L29.5589342,4.28276547 L29.5586478,4.28256491 L23.8136694,11.1294353 C23.4153641,10.792063 22.9873329,10.4887038 22.5340603,10.2238423 C22.0868507,9.96252357 21.6150705,9.73867947 21.1230267,9.55661702 L22.6513774,5.36624878 L21.1230267,9.55661702 C20.6363879,9.37655454 20.1299284,9.2373608 19.6078145,9.14320244 L20.3841167,4.7539482 Z" id="Combined-Shape" fill="url(#linearGradient-6)" fill-rule="evenodd" opacity="0.3"></path>
                    <mask id="mask-8" fill="white">
                        <use xlink:href="#path-7"></use>
                    </mask>
                    <use id="Mask" fill="#2D095E" fill-rule="evenodd" xlink:href="#path-7"></use>
                </g>
            </g>
        </g>
    </g>
</svg>