<?xml version="1.0" encoding="UTF-8"?>
<svg width="1440px" height="820px" viewBox="0 0 1440 820" version="1.1" xmlns="http://www.w3.org/2000/svg" xmlns:xlink="http://www.w3.org/1999/xlink">
    <!-- Generator: sketchtool 51 (57462) - http://www.bohemiancoding.com/sketch -->
    <title>7384646E-69C3-4389-B1DD-AE0C3A97BE98</title>
    <desc>Created with sketchtool.</desc>
    <defs>
        <rect id="path-1" x="0" y="0" width="1440" height="820"></rect>
        <linearGradient x1="59.67565%" y1="70.3019751%" x2="29.1853099%" y2="39.9680676%" id="linearGradient-3">
            <stop stop-color="#14DA9E" offset="0%"></stop>
            <stop stop-color="#14DA9E" stop-opacity="0.410411005" offset="53.2045843%"></stop>
            <stop stop-color="#14DA9E" stop-opacity="0" offset="100%"></stop>
        </linearGradient>
    </defs>
    <g id="Symbols" stroke="none" stroke-width="1" fill="none" fill-rule="evenodd">
        <g id="template_background/09-testnet">
            <mask id="mask-2" fill="white">
                <use xlink:href="#path-1"></use>
            </mask>
            <g id="Mask"></g>
            <g id="Cover" mask="url(#mask-2)">
                <g transform="translate(-1763.000000, -239.000000)">
                    <g id="Group" opacity="0.190011161" stroke="none" stroke-width="1" fill-rule="evenodd" transform="translate(1813.500000, 614.000000) rotate(-87.000000) translate(-1813.500000, -614.000000) translate(1293.000000, -1174.000000)">
                        <path d="M286.438247,168.051339 C255.747632,101.408996 207.529419,-0.644727623 130.660474,0.00306885992 C105.410188,0.214891585 80.2782538,13.4667006 62.735261,34.5727618 C46.0505586,140.354117 94.894207,244.181996 144.013047,328.617448 C203.4179,430.730571 274.443351,523.208562 341.936532,618.000913 C464.870266,790.661091 587.139114,976.196504 638.620177,1196.16824 C664.361189,1306.15691 669.944887,1421.3145 653.764383,1533.82039 C632.386987,1682.46615 564.469472,1814.6637 553.793764,1966.24808 C545.947913,2077.66795 571.080809,2177.03859 605.260394,2279.40724 C644.434805,2396.73462 682.242879,2514.1057 724.710932,2630.01868 C789.551303,2806.99265 856.653828,2982.8268 922.532422,3159.27625 C950.116065,3233.15307 977.681426,3307.07136 1003.86602,3381.63968 C1016.87701,3418.68961 1037.64532,3461.97989 1040.66377,3502.50752 C1006.96722,3516.15159 969.038865,3507.96672 935.01131,3500.57646 C893.979835,3491.66534 853.330358,3480.54969 811.781215,3475.19696 C769.143814,3469.70638 725.995481,3470.07175 683.790111,3479.57239 C661.910443,3484.49699 640.449336,3491.72137 619.697376,3501.19063 C598.923286,3510.66998 579.439518,3527.60011 558.671201,3535.91947 C531.843855,3546.66752 496.130509,3541.42911 468.356349,3541.31927 C415.170252,3541.10969 361.991852,3539.62469 308.808642,3539.09345 C249.075675,3538.49833 189.169511,3538.2753 129.535652,3542.86255 C104.051549,3544.82275 78.2662749,3547.26712 53.2709743,3553.63637 C39.1159191,3557.24184 20.1142176,3561.6352 10.6730239,3575.85422 C12.7542817,3534.89062 40.9941508,3492.44202 59.3049863,3459.65209 C92.7581032,3399.74548 129.403829,3342.2429 166.066875,3284.97791 C255.726463,3144.93171 348.209172,3007.26487 434.389412,2864.23634 C495.287614,2763.16552 565.574088,2653.90646 597.25674,2534.41715 C604.554133,2506.89812 612.140188,2470.64394 598.159292,2444.16385 C580.818363,2411.32237 545.900764,2384.05215 521.580934,2358.6648 C430.696455,2263.79064 338.49856,2170.62226 249.512518,2073.30373 C205.219156,2024.86469 161.406897,1975.6075 120.250336,1923.51592 C92.4126703,1888.28499 62.191613,1850.7296 43.8980973,1807.34181 C2.49424819,1709.14348 -2.0752819,1589.68555 0.626600707,1482.49989 C4.25412827,1338.59829 25.5045119,1195.54062 52.4694542,1055.31958 C85.8494433,881.744863 129.471184,710.973157 177.139975,542.061906 C212.43476,416.999079 252.82829,293.732823 286.438247,168.051339 Z" id="Stroke-1" stroke="url(#linearGradient-3)" stroke-width="0.75"></path>
                        <path d="M63.8223951,33.6226548 C47.8564628,139.550829 94.3715656,244.79198 141.394715,331.462218 C198.031293,435.852716 266.173003,531.354504 331.188497,628.655105 C449.825006,806.201775 568.317183,994.545801 621.635103,1214.0244 C648.125676,1323.07388 656.864458,1437.3853 644.558768,1549.94611 C628.490842,1696.9309 565.511382,1829.42322 558.386225,1978.40184 C553.117169,2088.57095 579.901216,2186.34339 612.435424,2287.89501 C649.913461,2404.87832 684.690577,2522.62822 724.601078,2638.68017 C785.12498,2814.67235 847.85619,2989.62111 909.509725,3165.07758 C935.358505,3238.64058 961.196701,3312.23161 985.793647,3386.37965 C998.359133,3424.25781 1017.22901,3466.71314 1020.96623,3507.58259" id="Stroke-63" stroke="url(#linearGradient-3)" stroke-width="0.75"></path>
                        <path d="M64.6957666,32.5018996 C49.5313543,137.039216 92.3746679,242.068545 136.310089,329.893161 C190.766302,438.746506 257.402155,538.948741 321.03303,640.574336 C434.488044,821.774668 548.173988,1011.71913 603.108419,1229.30814 C630.49096,1337.76474 642.369429,1451.49113 633.852918,1564.30746 C622.857756,1709.95856 564.6191,1843.00005 561.242709,1989.92881 C558.740966,2098.83595 587.499466,2194.78604 618.199703,2295.63271 C653.179846,2410.53925 684.509367,2526.70776 721.184922,2641.05841 C777.453937,2816.49919 835.902354,2990.97835 893.424165,3165.86323 C917.620832,3239.42735 941.814613,3313.01053 964.907626,3387.0577 C976.989121,3425.79549 994.177059,3467.76665 998.516621,3509.06535" id="Stroke-65" stroke="url(#linearGradient-3)" stroke-width="0.75"></path>
                        <path d="M65.6264485,30.2603893 C50.8728994,135.178763 91.6301442,241.73568 133.518947,331.696456 C184.474644,441.130352 246.96915,542.929664 307.153392,645.586353 C416.326577,831.806548 526.677505,1024.63584 583.618141,1242.33692 C611.845501,1350.2578 626.670254,1463.27251 621.919829,1576.18635 C615.852139,1720.38495 562.405284,1853.87473 562.690097,1998.76596 C562.897934,2104.33885 592.291492,2197.81096 621.022088,2296.10455 C655.197824,2413.02733 683.916873,2532.14679 718.685329,2649.00681 C769.807488,2820.83202 822.923344,2991.84021 875.309846,3163.14427 C898.460592,3238.8468 921.64694,3314.55269 943.721937,3390.69343 C954.554484,3428.05269 969.133874,3467.39119 973.677424,3506.73306" id="Stroke-67" stroke="url(#linearGradient-3)" stroke-width="0.75"></path>
                        <path d="M68.534189,28.018879 C54.0731514,133.317189 92.6490685,241.242548 132.352695,333.304739 C180.575718,445.12024 240.118167,550.00387 297.785271,655.371667 C402.278272,846.296791 508.69569,1042.15212 566.561009,1260.08968 C594.641151,1365.84974 611.801185,1476.09282 610.812996,1587.04422 C609.563087,1727.28432 562.2532,1858.77804 564.656797,1999.05848 C566.48307,2105.66022 597.953074,2199.65011 625.444345,2299.49595 C657.037512,2414.24111 682.236801,2531.62452 713.647149,2646.60615 C761.232228,2820.79728 810.827361,2994.2319 859.770117,3167.90748 C880.213207,3240.45284 900.681315,3312.99708 920.266115,3385.8641 C930.450134,3423.75235 943.60353,3462.95076 948.459798,3502.43497" id="Stroke-69" stroke="url(#linearGradient-3)" stroke-width="0.75"></path>
                        <path d="M71.4993155,25.7773687 C57.2201353,131.44889 93.4684692,240.69674 130.902244,334.808793 C175.54104,447.035611 230.866127,553.221558 284.999038,659.450095 C384.711785,855.121617 487.402568,1053.7284 547.143232,1271.75899 C576.012386,1377.11894 595.920488,1486.46205 598.576184,1597.28344 C600.021422,1657.59352 597.121325,1719.38075 586.731393,1778.60257 C573.41827,1854.48779 562.110391,1928.01493 565.412692,2005.90741 C569.784007,2109.00008 601.631198,2200.46939 627.189391,2297.72516 C639.085179,2342.99358 646.842507,2389.82433 657.243986,2435.59934 C673.693909,2507.99564 691.338896,2580.02433 709.222511,2651.9544 C751.609737,2822.44367 795.807841,2992.31541 839.538311,3162.34069 C858.166676,3234.77174 876.821982,3307.19942 894.761405,3379.86806 C904.216069,3418.16763 915.983884,3457.3425 921.038368,3496.89731" id="Stroke-71" stroke="url(#linearGradient-3)" stroke-width="0.75"></path>
                        <path d="M74.526968,22.4151032 C60.3132181,128.537168 94.1618029,238.999917 129.179472,335.179763 C170.893152,449.7512 223.113191,558.907149 274.586557,667.795238 C368.397114,866.242871 465.916024,1065.95584 526.870996,1282.09011 C556.482975,1387.08805 579.072753,1495.57267 585.341544,1606.12396 C588.761235,1666.42619 588.168514,1728.45551 579.43743,1788.14693 C568.52117,1862.78025 559.782389,1935.44105 564.939829,2011.37221 C571.810963,2112.52933 605.225591,2202.48787 628.661151,2298.82126 C639.810266,2344.64893 646.568821,2392.1443 656.023486,2438.49201 C670.248782,2508.22875 685.479587,2577.68868 700.942284,2647.06454 C738.76383,2816.76705 778.305804,2985.9428 817.532175,3155.21045 C834.286156,3227.51036 851.077664,3299.80355 867.300506,3372.26822 C875.960386,3410.94884 886.358978,3450.11811 891.506795,3489.72672" id="Stroke-73" stroke="url(#linearGradient-3)" stroke-width="0.75"></path>
                        <path d="M78.5799114,19.0528377 C64.5739986,123.795253 94.6940239,233.445455 126.357432,330.141968 C165.302838,449.077627 215.081753,562.979973 264.574893,676.307373 C352.377417,877.354037 444.719643,1078.19 506.732083,1292.56132 C537.037815,1397.32503 562.211124,1504.86373 572.042974,1615.09 C577.328388,1674.35329 579.509716,1736.21561 572.887794,1795.48339 C564.5618,1870.00352 557.344271,1941.59064 564.378981,2016.83365 C573.501683,2114.40099 607.07219,2201.92973 628.648762,2295.69659 C639.151272,2341.33822 644.673389,2388.70022 652.945499,2434.95378 C665.341636,2504.268 678.682663,2573.35359 692.235375,2642.37082 C725.404641,2811.28655 760.185606,2979.76631 794.798185,3148.2853 C817.484184,3258.74133 846.25423,3370.34276 860.92118,3482.77244" id="Stroke-75" stroke="url(#linearGradient-3)" stroke-width="0.75"></path>
                        <path d="M82.7295648,15.6905722 C68.5716229,121.038195 96.1350592,231.920107 125.253425,330.646308 C160.451027,449.979834 205.879796,565.036559 251.676129,679.243752 C334.091246,884.766712 422.181471,1088.62423 485.843136,1303.42592 C516.840696,1408.01928 544.518635,1514.71517 557.869284,1624.52228 C565.088737,1683.90437 569.620741,1746.00541 564.519109,1805.86831 C558.301315,1878.83955 554.016599,1949.84948 562.739023,2022.90366 C574.135425,2118.35166 608.943332,2204.7361 628.356859,2297.59179 C638.017437,2343.79604 642.436862,2391.81928 649.656315,2438.61193 C660.399378,2508.24669 671.960318,2577.71221 683.721397,2647.1217 C711.722639,2812.36808 741.116196,2977.29057 770.492434,3142.21081 C790.266789,3253.22161 814.137268,3364.54734 828.44339,3476.75959" id="Stroke-77" stroke="url(#linearGradient-3)" stroke-width="0.75"></path>
                        <path d="M87.9497503,12.3283068 C73.5281632,118.450371 98.4243564,230.572959 124.915892,331.416267 C156.923771,453.256923 198.882815,571.402449 241.784823,688.484378 C317.957129,896.363166 400.83122,1101.61939 465.224164,1315.0504 C496.78654,1419.66616 526.96526,1525.43631 543.774088,1634.82426 C552.773628,1693.39492 560.08834,1755.33346 556.971745,1814.99013 C553.303805,1885.23122 550.584602,1953.12209 560.167241,2023.0729 C573.31775,2119.07118 610.297362,2206.23679 627.794169,2300.66602 C636.087448,2345.42001 639.243493,2391.71505 645.038877,2436.98795 C653.906594,2506.25174 663.491157,2575.39001 673.261426,2644.48792 C696.5286,2809.03944 721.043758,2973.34999 745.675344,3137.63028 C762.38314,3249.06136 781.442574,3360.41287 795.139617,3472.41778" id="Stroke-79" stroke="url(#linearGradient-3)" stroke-width="0.75"></path>
                        <path d="M93.3039954,10.0867964 C78.5100335,117.17159 100.633141,230.595374 124.416058,333.666743 C152.642456,455.996048 190.242694,575.275778 229.394012,693.343972 C300.354032,907.336479 379.475508,1117.77507 445.532111,1333.95529 C477.035793,1437.0558 509.04271,1540.28184 528.930606,1647.45629 C539.350366,1703.60836 548.297946,1762.41327 548.364339,1820.05819 C548.446127,1892.26508 545.837578,1961.01893 557.536114,2032.63742 C572.648567,2125.16024 609.429003,2210.02158 625.27947,2302.08489 C633.332196,2348.85737 635.248916,2397.54858 640.071507,2444.87807 C647.161063,2514.47584 654.837565,2583.99292 662.68053,2653.47974 C693.493346,2926.46096 728.781395,3198.71368 760.165763,3471.59403" id="Stroke-81" stroke="url(#linearGradient-3)" stroke-width="0.75"></path>
                        <path d="M98.8233809,6.72453096 C83.6118203,114.549023 102.681839,228.905275 123.525208,333.913309 C148.253014,458.480762 182.060224,580.515309 218.003538,701.225122 C282.772706,918.739042 356.841623,1132.2429 423.987447,1348.73917 C455.946253,1451.78365 490.227832,1554.01445 513.335279,1660.40886 C525.441791,1716.15186 536.613999,1774.60596 538.708728,1832.25537 C541.294183,1903.37625 540.601393,1971.29177 553.811559,2041.49251 C570.851316,2132.04616 608.377463,2215.79908 622.238083,2307.13053 C629.3719,2354.13613 630.010806,2403.03131 633.563281,2450.53004 C638.75055,2519.90478 644.391018,2589.23357 650.172932,2658.54444 C672.823329,2930.04737 694.982038,3202.02327 723.643355,3472.7753" id="Stroke-83" stroke="url(#linearGradient-3)" stroke-width="0.75"></path>
                        <path d="M105.502603,4.48302064 C89.9956438,111.741531 105.414079,225.389466 122.789648,331.000467 C144.108348,460.575454 174.758551,588.019885 208.140464,713.99949 C266.372385,933.753799 334.830662,1149.49356 402.637523,1365.40705 C435.138053,1468.89982 471.791477,1570.62068 498.100193,1676.62506 C511.964661,1732.49022 525.262388,1790.85915 529.206482,1849.01962 C533.968454,1919.24054 535.762974,1986.35584 550.568482,2055.26211 C569.645236,2144.04161 608.011392,2226.82282 619.45398,2317.82366 C625.20414,2363.55495 624.698981,2410.79815 626.865875,2456.91386 C630.116217,2526.09919 633.689861,2595.26324 637.371272,2664.41943 C646.029228,2827.05558 655.320317,2989.64689 665.110792,3152.19562 C671.664397,3261.00861 676.347468,3370.47725 686.657536,3478.92713" id="Stroke-85" stroke="url(#linearGradient-3)" stroke-width="0.75"></path>
                        <path d="M112.52107,2.24151032 C96.1760277,112.296305 108.951275,228.947864 123.796234,338.206922 C141.394073,467.724751 167.396806,595.636537 196.741291,722.165312 C248.83047,946.761284 312.40265,1167.56126 381.531587,1385.7566 C414.301536,1489.18997 453.087214,1589.8831 482.361458,1694.83845 C497.764498,1750.06479 513.204102,1807.88454 519.41035,1865.70318 C526.813585,1934.67109 530.058153,2001.22826 546.159757,2068.80755 C566.916528,2155.91713 605.659869,2237.49465 615.521548,2327.93735 C620.725174,2375.65911 618.762268,2425.12476 619.684064,2473.13455 C621.012874,2542.28738 622.498525,2611.43461 624.061152,2680.5796 C627.705999,2841.93136 631.726108,3003.27527 636.371653,3164.59229 C639.482474,3272.59498 639.401649,3382.03224 648.482976,3489.6606" id="Stroke-87" stroke="url(#linearGradient-3)" stroke-width="0.75"></path>
                        <path d="M119.908281,0 C102.851203,111.626093 112.427106,229.667389 124.19011,341.319259 C138.127706,473.605353 160.169988,604.701205 186.121724,734.449909 C231.772763,962.679369 289.883446,1187.79537 359.908199,1407.48356 C393.027429,1511.38877 434.068526,1611.59437 466.285204,1715.93891 C483.310528,1771.07895 500.786167,1828.64653 509.078483,1886.63889 C518.791982,1954.57795 524.062962,2020.60612 541.552071,2087.01758 C564.127416,2172.74302 603.322034,2253.22894 611.181356,2343.57861 C615.377549,2391.80919 612.094493,2441.6615 611.65765,2490.04002 C611.035101,2559.21863 610.404854,2628.395 609.810209,2697.57361 C608.427514,2858.37172 607.14489,3019.17543 606.618562,3179.98138 C606.266393,3287.84734 601.518854,3398.0568 609.236732,3505.69973" id="Stroke-89" stroke="url(#linearGradient-3)" stroke-width="0.75"></path>
                        <path d="M126.866018,0 C109.081511,113.069626 115.345491,232.196933 123.873549,345.984963 C134.146091,483.064527 152.497339,619.34163 175.409457,754.283913 C214.347165,983.600506 266.337237,1210.6599 336.017519,1429.9928 C369.675586,1535.93779 413.529219,1637.09827 449.02703,1742.20941 C468.203854,1798.99023 489.345508,1859.02684 498.661614,1919.35485 C508.656078,1984.07174 517.301525,2047.04137 535.302529,2109.7465 C559.957208,2195.62772 600.479674,2276.3008 605.646736,2368.32489 C608.283188,2415.28005 604.086033,2463.23828 602.338661,2510.18111 C599.780148,2578.92263 597.034004,2647.65406 594.276313,2716.38437 C587.863191,2876.23319 581.248004,3036.07193 575.490146,3195.95438 C571.522959,3306.13134 561.778669,3419.75686 568.214885,3530.01563" id="Stroke-91" stroke="url(#linearGradient-3)" stroke-width="0.75"></path>
                        <path d="M134.574308,0 C117.28149,114.570317 121.304485,234.430598 127.561729,349.955799 C135.11988,489.508869 150.303537,628.545271 170.571505,766.335393 C204.684698,998.253259 252.346753,1229.39556 324.510497,1449.49843 C359.312631,1555.64403 406.15296,1656.01662 445.11761,1760.09667 C466.292941,1816.65894 489.891114,1876.1475 501.750339,1936.55844 C514.241735,2000.19044 525.153184,2062.36657 544.863071,2123.82767 C571.910763,2208.1701 613.568636,2286.88185 617.573349,2378.86671 C619.630552,2426.13232 614.566446,2474.32815 611.79336,2521.46039 C607.755932,2590.08535 603.268189,2658.6722 598.704433,2727.25009 C588.12687,2886.22024 576.911363,3045.13324 566.836074,3204.14822 C562.400291,3274.14498 558.086708,3344.16528 554.830593,3414.25171 C552.940815,3454.91607 549.592328,3496.91076 552.453937,3537.6334" id="Stroke-93" stroke="url(#linearGradient-3)" stroke-width="0.75"></path>
                        <path d="M143.019538,0 C125.993251,115.804268 127.6088,236.18458 131.467258,353.152192 C136.144555,494.952377 148.018213,636.49815 165.483267,776.917564 C194.577577,1010.82701 237.567147,1245.91549 312.005552,1466.41622 C347.855531,1572.6089 397.616165,1672.0535 439.843665,1774.85253 C462.974205,1831.15815 488.88649,1889.98434 503.292682,1950.3583 C518.1896,2012.78773 531.350694,2074.07622 552.701147,2134.24172 C582.028312,2216.88397 624.681109,2293.31611 627.399349,2385.1788 C628.805136,2432.68089 622.815385,2481.01346 618.959814,2528.22975 C613.373229,2596.64961 607.079421,2664.98878 600.644168,2733.30553 C585.76938,2891.20536 569.824617,3048.96734 555.275056,3206.90864 C548.870593,3276.42684 542.605651,3345.98427 537.690688,3415.66946 C534.840625,3456.07605 530.14697,3498.53474 533.324184,3539.12625" id="Stroke-95" stroke="url(#linearGradient-3)" stroke-width="0.75"></path>
                        <path d="M152.219236,2.24151032 C134.974528,119.14636 133.859328,240.029891 135.047656,358.312149 C136.493856,502.272029 144.757306,646.230788 159.10769,789.217852 C182.740502,1024.71653 220.468714,1263.78705 296.658339,1484.65427 C333.291556,1590.85143 385.801221,1689.35124 430.970193,1790.73251 C455.952023,1846.80277 483.964811,1904.92849 500.85735,1965.18814 C518.004875,2026.35783 533.337674,2086.70489 556.194947,2145.58937 C587.604332,2226.50453 630.94607,2300.49342 632.099758,2392.22387 C632.700177,2439.95683 625.660656,2488.37346 620.610984,2535.63346 C613.324176,2603.82581 605.090554,2671.87918 596.650058,2739.88772 C577.193231,2896.66232 556.255566,3053.18138 536.916129,3209.97615 C528.406353,3278.96647 520.046682,3348.01396 513.284278,3417.27214 C509.368088,3457.37052 503.262873,3500.19346 506.435275,3540.67961" id="Stroke-97" stroke="url(#linearGradient-3)" stroke-width="0.75"></path>
                        <path d="M160.820114,5.6037758 C142.845089,124.003713 138.748004,245.911614 137.100702,365.892937 C135.121438,510.042224 139.429247,654.389885 150.09822,798.022504 C167.858672,1037.14122 199.753973,1283.79478 278.997649,1506.92144 C316.201456,1611.67506 370.617256,1708.12277 417.913673,1806.8613 C443.920255,1861.1518 471.707886,1916.36468 491.775715,1974.1015 C513.19641,2035.72959 530.029292,2098.10297 555.335386,2158.097 C588.213102,2236.04216 631.037172,2306.25186 631.25848,2396.27316 C631.381643,2446.16021 622.536056,2497.01896 615.918946,2546.117 C606.689438,2614.60187 596.30143,2682.87267 585.641118,2751.07174 C561.228916,2907.24785 534.962537,3063.02161 510.536864,3219.19436 C500.222947,3285.13959 490.07453,3351.15431 481.609016,3417.46043 C476.509308,3457.41199 468.86071,3500.71349 471.784863,3541.33974" id="Stroke-99" stroke="url(#linearGradient-3)" stroke-width="0.75"></path>
                        <path d="M170.68577,8.96604128 C151.95926,126.481703 144.681112,246.957279 139.877765,366.183213 C133.873582,515.24589 134.184375,664.781527 141.538538,813.772476 C153.30924,1052.25348 178.813549,1301.5834 258.519086,1523.78992 C296.190526,1628.81253 353.320718,1724.62028 403.154479,1822.05537 C430.946921,1876.39855 460.505979,1931.25055 482.78785,1989.03781 C506.102172,2049.50143 525.549376,2110.72156 552.329574,2169.53094 C587.163461,2246.03033 629.9654,2313.45832 627.642627,2403.73066 C626.394642,2452.20557 616.851455,2501.02902 609.10856,2548.5412 C597.989273,2616.76717 585.441107,2684.67708 572.567714,2752.47941 C543.046183,2907.96513 511.24999,3062.85126 481.41574,3218.25517 C468.803106,3283.95047 456.372329,3349.7332 445.762052,3415.91379 C439.380682,3455.71741 430.109799,3499.33832 432.584601,3540.1551" id="Stroke-101" stroke="url(#linearGradient-3)" stroke-width="0.75"></path>
                        <path d="M179.485725,14.5698171 C134.743974,278.472914 124.48394,555.52471 130.506406,823.798752 C135.894776,1063.88804 154.528913,1318.48663 235.153359,1542.2779 C273.069201,1647.52017 332.888767,1742.63082 385.056847,1838.62462 C414.484082,1892.77166 446.168659,1947.16863 470.548146,2004.70932 C495.707984,2064.09366 517.389437,2124.3477 545.62642,2182.07555 C581.496605,2255.41105 623.675033,2319.26607 620.034997,2407.57149 C617.944117,2458.28342 606.448607,2509.29907 596.855384,2558.60334 C584.066665,2624.32666 569.796145,2689.65548 555.13593,2754.84084 C520.33091,2909.60592 482.830742,3063.52483 447.378155,3218.08593 C431.887554,3285.61591 416.528776,3353.25685 403.429264,3421.4817 C396.189604,3459.19175 386.074864,3500.53416 387.853026,3539.53757" id="Stroke-103" stroke="url(#linearGradient-3)" stroke-width="0.75"></path>
                        <path d="M189.668035,21.294348 C140.957172,289.27139 121.051956,568.715998 120.301433,842.253107 C119.646169,1081.00758 131.226353,1338.25227 211.786331,1561.21418 C249.880182,1666.64362 312.419912,1761.07845 366.755849,1855.55362 C397.926606,1909.74998 431.170924,1963.81745 457.76734,2021.29314 C483.759489,2077.46202 507.180616,2134.57459 535.611965,2189.28649 C573.918463,2263.00304 617.952029,2325.4885 611.498494,2416.16656 C607.997016,2465.36323 595.689402,2514.45119 584.96847,2562.03957 C569.594297,2630.28123 552.373644,2697.95579 534.699791,2765.42973 C495.088537,2916.65435 452.57045,3066.81537 412.075888,3217.71832 C394.044093,3284.9132 376.127763,3352.23808 360.614069,3420.29258 C352.069654,3457.7796 340.282595,3499.29013 341.386249,3538.53449" id="Stroke-105" stroke="url(#linearGradient-3)" stroke-width="0.75"></path>
                        <path d="M200.255734,30.2603893 C147.32366,301.133462 117.890651,581.758226 110.001501,859.243755 C103.222739,1097.67993 107.328484,1359.27315 188.380151,1582.60379 C226.561563,1687.8102 291.659806,1781.28006 347.868201,1873.869 C380.609284,1927.80198 415.347912,1981.29115 444.197821,2038.2087 C471.959473,2092.97888 497.407012,2148.84292 527.099816,2202.35786 C548.121194,2240.24723 574.292314,2277.6995 590.676807,2318.72251 C603.738793,2351.42726 605.616063,2388.75289 602.203108,2424.15194 C597.438249,2473.5638 583.778732,2522.53968 571.551943,2569.99693 C554.046477,2637.93935 534.490543,2705.16225 514.426563,2772.12849 C469.502953,2922.05639 421.334776,3070.62593 375.231498,3220.0607 C354.719129,3286.54614 334.306829,3353.17279 316.420328,3420.69381 C306.608684,3457.73253 293.186832,3499.13546 293.558244,3538.43586" id="Stroke-107" stroke="url(#linearGradient-3)" stroke-width="0.75"></path>
                        <path d="M210.171327,40.3471858 C153.045946,312.617841 114.451747,592.843615 99.1651342,872.575137 C91.7753698,1007.82787 90.3041524,1144.09713 101.287767,1279.147 C110.239196,1389.20628 126.806509,1501.56871 163.917945,1603.95642 C202.088772,1709.26594 270.073642,1801.9961 328.194908,1892.8658 C362.572708,1946.6161 399.244414,1999.60092 430.282387,2056.08026 C459.774089,2109.74426 487.249003,2164.53237 518.37165,2217.05208 C539.405536,2252.54864 565.092665,2287.68431 581.62149,2326.47813 C595.76596,2359.67826 596.263422,2398.50794 591.66214,2434.44272 C585.241319,2484.5797 570.094227,2533.84698 556.145084,2581.65055 C537.065444,2647.03876 515.922828,2711.59874 494.22213,2775.85948 C442.918114,2927.78009 387.82107,3077.903 335.022743,3229.1164 C312.898674,3292.47942 290.893918,3355.99822 271.340871,3420.51337 C260.208114,3457.24612 245.010987,3498.72415 244.639574,3538.29016" id="Stroke-109" stroke="url(#linearGradient-3)" stroke-width="0.75"></path>
                        <path d="M221.005153,52.6754925 C159.059106,328.902413 111.291207,611.44703 89.066106,895.941762 C78.5770667,1030.22392 73.9228623,1165.78934 82.1353153,1300.42678 C88.867891,1410.81332 103.421301,1524.50609 140.689576,1627.08656 C178.962397,1732.43419 249.98015,1824.50983 309.9325,1913.60202 C346.093273,1967.33999 384.232347,2020.10962 417.617147,2076.25049 C448.78598,2128.6626 478.663529,2181.86485 511.140966,2233.25932 C532.625167,2267.25743 559.279315,2301.11656 575.396314,2339.13818 C588.762358,2370.66727 588.254312,2407.62193 583.329727,2441.52813 C576.046768,2491.6752 559.624748,2540.706 544.291949,2588.11954 C523.231121,2653.24551 499.86484,2717.3471 475.899103,2781.08444 C419.069121,2932.22276 357.98425,3081.11844 299.245246,3231.24808 C274.610773,3294.21099 250.078295,3357.3364 228.102406,3421.63636 C215.646612,3458.0822 198.656889,3499.4885 197.570555,3539.38514" id="Stroke-111" stroke="url(#linearGradient-3)" stroke-width="0.75"></path>
                        <path d="M231.408804,66.1245544 C164.70752,346.377227 107.957401,631.17008 78.9054281,920.345085 C65.2786256,1055.9856 57.5645968,1193.20414 63.7352425,1329.74686 C68.6819584,1439.23119 81.3773427,1553.71072 119.486589,1655.00457 C158.470482,1758.62287 231.327978,1848.71029 292.407075,1935.02189 C330.322917,1988.60295 370.329639,2040.9142 406.070888,2096.49581 C439.035203,2147.75803 470.95937,2199.70615 504.947475,2250.111 C526.675115,2282.33383 554.583022,2315.29412 570.267989,2352.24878 C583.498362,2383.4181 581.290092,2420.80985 575.492783,2453.86428 C566.574069,2504.71631 548.619251,2554.0116 531.551589,2601.71318 C508.177611,2667.04312 482.338453,2731.16825 455.837295,2794.84395 C394.424312,2942.40482 328.67754,3087.43614 265.189072,3233.78435 C238.059592,3296.32361 211.0119,3359.02874 186.629526,3423.10231 C172.910351,3459.15476 154.076074,3500.60926 152.349871,3540.77264" id="Stroke-113" stroke="url(#linearGradient-3)" stroke-width="0.75"></path>
                        <path d="M242.513014,81.8151267 C172.024476,363.501246 107.107128,647.633973 71.1859454,938.499077 C54.2289379,1075.80391 43.1952884,1214.99274 46.9046037,1353.83077 C49.8364543,1463.55718 60.6218539,1579.44214 99.11021,1680.90411 C116.140345,1725.79595 142.374971,1766.08038 167.933164,1804.72962 C202.806501,1857.46787 240.04591,1908.06212 277.462366,1958.35489 C353.560581,2060.64061 427.000214,2164.99076 501.643569,2268.67406 C523.335607,2298.80557 550.657529,2329.44701 566.847656,2364.25655 C580.780441,2394.21321 577.711957,2431.28555 571.660625,2463.27639 C562.042385,2514.12841 542.865561,2563.21636 524.532595,2610.44947 C499.270762,2675.5306 471.292614,2739.17605 442.598582,2802.28016 C375.858811,2949.05426 304.375349,3092.79559 235.181944,3237.99839 C205.594021,3300.09047 176.067678,3362.35402 149.321157,3426.19223 C134.377091,3461.86363 113.705957,3503.23182 111.459199,3543.73928" id="Stroke-115" stroke="url(#linearGradient-3)" stroke-width="0.75"></path>
                        <path d="M252.698144,99.7472092 C178.319396,385.716854 104.920176,671.873666 62.7186561,967.208341 C43.2541322,1103.42604 29.5676728,1241.69025 30.8772391,1379.97014 C31.9164247,1489.77837 40.7610489,1607.35903 79.8219194,1708.79074 C96.9886884,1753.36653 124.001741,1792.97626 150.079527,1830.8264 C186.352878,1883.475 225.114502,1933.78906 264.142657,1983.6649 C342.205703,2083.42893 419.388328,2183.8923 496.784564,2284.34782 C519.848711,2314.28319 550.224684,2345.44915 566.965194,2381.14072 C580.887395,2410.82392 576.239926,2448.06325 569.397659,2479.36258 C558.121532,2530.94198 537.689026,2580.15994 517.648139,2627.73824 C490.155906,2693.00878 459.767425,2756.61163 428.623609,2819.59695 C357.818505,2962.79584 282.190809,3102.64479 208.799287,3244.04038 C176.814501,3305.66286 144.865317,3367.47027 115.830663,3431.06752 C99.76851,3466.25363 77.2239554,3507.64424 74.6269535,3548.45653" id="Stroke-117" stroke="url(#linearGradient-3)" stroke-width="0.75"></path>
                        <path d="M264.145419,119.920802 C187.439087,407.608565 106.512507,692.814976 58.267353,989.49904 C35.4533798,1129.79405 18.545445,1272.62085 18.2856486,1415.65386 C18.0903202,1523.43352 25.5724566,1639.53927 64.5919521,1738.89982 C81.9598228,1783.12482 109.874465,1822.04753 136.49205,1859.06383 C174.274145,1911.60483 214.638809,1961.61293 255.352754,2011.05952 C336.836453,2110.0222 419.009093,2208.2138 500.64867,2307.00725 C524.120794,2335.41055 555.954513,2365.06125 572.507393,2399.90216 C586.408425,2429.16172 580.160803,2467.08807 572.750832,2497.41347 C543.728687,2616.18774 480.007364,2727.01921 424.774649,2830.89753 C349.044959,2973.32758 268.080853,3111.84171 189.41354,3252.06163 C155.115604,3313.1977 120.828251,3374.52654 89.606497,3437.88731 C72.5888703,3472.42338 48.1064269,3514.07625 45.3833757,3555.09253" id="Stroke-119" stroke="url(#linearGradient-3)" stroke-width="0.75"></path>
                        <path d="M275.283853,142.335905 C196.996612,433.545081 108.308855,719.231175 54.6608978,1018.79558 C29.3538415,1160.10487 9.89316637,1304.21269 7.89850731,1448.81252 C6.42151665,1555.87378 12.2948398,1673.48695 52.4853435,1771.78502 C70.3795425,1815.55163 99.1938503,1853.67636 126.422438,1889.83865 C165.743105,1942.06135 207.684829,1991.59761 250.047038,2040.45021 C334.99084,2138.40421 421.988958,2233.97436 507.953664,2330.71122 C531.968473,2357.73599 565.135814,2386.07765 582.238115,2419.97153 C596.539426,2448.3143 589.145813,2486.3561 581.501063,2515.64703 C550.377454,2634.87969 483.518368,2744.69688 425.110364,2847.43091 C344.884272,2988.54183 259.10431,3125.20335 175.713513,3263.76231 C139.41322,3324.07575 103.104267,3384.59653 70.0302607,3447.40813 C52.2736575,3481.13053 26.0640492,3522.83383 23.5074602,3563.81536" id="Stroke-121" stroke="url(#linearGradient-3)" stroke-width="0.75"></path>
                        <path d="M210.72375,3216.48791 C210.136894,3183.97032 254.621736,3173.55066 274.73094,3168.28647 C318.378661,3156.85813 363.620761,3153.22016 408.161411,3149.74582 C445.424875,3146.8397 482.763392,3145.15633 519.998952,3141.76829 C537.297544,3140.19475 559.457215,3141.01738 573.848011,3129.05892 C600.746561,3106.70882 625.285775,3085.5075 657.895997,3073.94355 C685.871258,3064.02374 715.24461,3061.35522 744.319676,3063.9621 C771.9649,3066.44009 798.842281,3074.13856 826.083378,3079.6594 C846.57939,3083.81404 872.683155,3089.07822 890.824642,3073.47843" id="Stroke-9" stroke="url(#linearGradient-3)" stroke-width="0.75"></path>
                        <path d="M295.149222,3086.28288 C276.058035,3021.20848 425.80372,3009.96394 455.270405,3005.85301 C487.031959,3001.42154 519.150492,2998.69026 550.699398,2992.42636 C558.07954,2990.96042 567.613106,2990.37538 574.174409,2986.11875 C580.109313,2982.26896 579.02779,2979.97589 581.604586,2976.51164 C615.668705,2930.7075 666.415603,2902.94527 720.378203,2905.84915 C748.501644,2907.36105 806.013833,2936.43904 827.42683,2904.99737" id="Stroke-11" stroke="url(#linearGradient-3)" stroke-width="0.75"></path>
                        <path d="M380.290687,2952.23272 C358.684286,2883.72992 455.552743,2868.97518 494.55973,2859.83655 C519.150903,2854.07474 544.392529,2850.15882 568.621911,2842.42673 C572.374526,2841.22977 586.892334,2837.77224 589.729888,2832.8723 C595.294342,2823.26518 588.013307,2829.46408 589.953121,2821.18058 C599.958169,2778.47869 655.769172,2746.42061 691.622038,2745.17545 C709.9271,2744.5411 756.899252,2765.94192 763.405709,2734.64259" id="Stroke-13" stroke="url(#linearGradient-3)" stroke-width="0.75"></path>
                        <path d="M460.874539,2820.02732 C447.948225,2792.56322 445.644697,2770.77237 469.341978,2750.18522 C489.516612,2732.65661 516.052409,2724.01671 539.821856,2715.63346 C557.529386,2709.38974 576.677343,2705.0087 593.28988,2695.33659 C597.213768,2693.05249 604.562157,2690.08249 605.705261,2684.20525 C607.109124,2676.98534 599.671249,2675.70544 598.268349,2670.96689 C592.772212,2668.24009 593.222525,2664.26365 599.620252,2659.03421 C603.894384,2650.75519 608.62749,2642.84154 613.821494,2635.29437 C619.183884,2627.4715 625.098582,2619.67553 631.637754,2613.14489 C642.644461,2602.1514 655.494761,2593.4308 670.128996,2591.48293 C686.045856,2589.3647 709.148492,2603.2475 704.877247,2573.25385" id="Stroke-15" stroke="url(#linearGradient-3)" stroke-width="0.75"></path>
                        <path d="M528.532264,2697.95467 C515.948496,2676.61661 502.701766,2653.16481 517.395658,2628.31655 C529.34052,2608.11718 551.904318,2597.3131 570.446084,2587.5827 C583.055832,2580.96464 601.52928,2575.73184 611.628625,2564.17909 C615.001167,2560.32033 617.526003,2558.80283 617.841608,2553.09482 C618.344843,2544.00326 607.43147,2543.58858 604.841203,2537.52866 C595.769498,2516.315 629.596914,2464.01384 648.232976,2457.3263 C664.492382,2451.49277 664.397123,2459.45125 654.870293,2434.28021" id="Stroke-17" stroke="url(#linearGradient-3)" stroke-width="0.75"></path>
                        <path d="M578.780668,2589.82533 C551.610776,2549.52634 544.480808,2518.65626 582.34469,2487.0801 C591.413509,2479.51725 632.251579,2462.04019 628.911752,2443.21151 C626.795855,2431.28555 609.028667,2430.55033 605.281826,2420.84235 C602.22585,2412.92646 616.981324,2381.34134 621.154424,2371.74095 C624.511571,2364.01895 629.936505,2349.48948 638.208615,2348.2163 C630.228054,2345.37406 624.754048,2333.89641 620.296134,2326.68771" id="Stroke-19" stroke="url(#linearGradient-3)" stroke-width="0.75"></path>
                        <path d="M603.903071,2503.27838 C580.010461,2469.85186 561.116527,2434.61195 593.952868,2399.99855 C602.206696,2391.29813 631.039286,2375.39461 629.523807,2359.9394 C628.633764,2350.86464 620.128799,2347.66489 614.313209,2343.39481 C602.364499,2340.55594 598.933262,2333.89193 604.02046,2323.40726 C605.76302,2314.62615 607.74036,2305.91564 609.951516,2297.27798 C612.735186,2286.47165 616.066353,2275.47256 620.302959,2265.54043 C609.270272,2268.76484 600.214924,2253.90923 594.082766,2245.99334" id="Stroke-21" stroke="url(#linearGradient-3)" stroke-width="0.75"></path>
                        <path d="M598.352493,2443.41997 C581.703393,2418.83172 561.034183,2391.65677 568.959898,2357.57124 C573.360079,2338.64281 585.600339,2325.23858 596.757151,2311.5676 C601.418091,2305.85848 610.782308,2296.55621 612.05531,2287.89613 C614.960219,2268.14619 595.74587,2268.83881 588.237753,2257.86662 C578.097034,2243.05248 589.163398,2213.60912 592.360819,2197.54646 C593.229693,2193.1856 596.980384,2183.7735 595.797829,2179.66145 C594.311216,2174.49252 593.021856,2177.7797 590.379631,2173.93663 C584.380258,2165.21043 573.378361,2157.95354 566.741044,2148.48764" id="Stroke-23" stroke="url(#linearGradient-3)" stroke-width="0.75"></path>
                        <path d="M552.070543,2389.70665 C537.078366,2362.7906 521.532919,2334.25617 526.214065,2300.57524 C529.402826,2277.63338 541.497792,2258.88763 553.640868,2241.29065 C561.172077,2230.37898 571.786203,2218.6839 574.678603,2204.62066 C579.084558,2183.19855 564.20977,2181.41655 555.734634,2166.7638 C542.42921,2143.76142 566.614331,2101.08866 569.849277,2076.40179 C572.251912,2058.06399 559.963543,2042.38575 552.982717,2026.32533" id="Stroke-25" stroke="url(#linearGradient-3)" stroke-width="0.75"></path>
                        <path d="M470.457683,2305.05378 C457.138787,2270.63651 448.012236,2237.41956 459.174821,2200.06816 C466.629053,2175.12575 481.272911,2154.19453 495.99182,2134.59252 C506.793577,2120.20875 521.035231,2105.1514 527.326153,2086.9806 C534.813101,2065.35227 524.885029,2061.28953 519.232052,2043.37874 C512.806421,2023.01798 528.995586,1992.25886 536.570094,1974.15642 C541.553374,1962.24615 547.329514,1950.98817 553.741674,1940.05744 C568.059343,1915.64964 569.750906,1900.88929 566.558297,1870.54036" id="Stroke-27" stroke="url(#linearGradient-3)" stroke-width="0.75"></path>
                        <path d="M370.559133,2200.41783 C355.13781,2118.76746 386.477917,2061.89137 435.18878,2006.82643 C451.770526,1988.08068 471.082059,1970.08584 484.147894,1947.55417 C495.457697,1928.05079 492.489283,1918.59946 492.729835,1897.67384 C493.025233,1871.98053 512.419516,1844.65764 525.341019,1824.46948 C535.783872,1808.15241 547.652719,1793.32706 560.709894,1779.81075 C587.460264,1752.11801 608.257447,1732.07218 618.417411,1690.09878" id="Stroke-29" stroke="url(#linearGradient-3)" stroke-width="0.75"></path>
                        <path d="M263.774968,2087.13078 C260.795969,1995.89459 309.542434,1935.81538 366.753451,1882.07854 C386.646158,1863.39331 407.765681,1845.81314 426.0082,1824.86511 C441.678734,1806.8725 446.859267,1792.57055 453.200224,1769.48635 C466.885721,1719.66766 516.896529,1674.92376 554.167691,1647.55716 C591.632256,1620.0471 627.220515,1598.80319 651.392165,1553.36665" id="Stroke-31" stroke="url(#linearGradient-3)" stroke-width="0.75"></path>
                        <path d="M163.575514,1975.49012 C172.064121,1880.66302 229.635004,1818.59336 292.455699,1765.00333 C333.679615,1729.8374 382.258656,1699.59158 406.494774,1645.50842 C430.432607,1592.08874 485.700924,1550.87858 530.429205,1523.34835 C578.215386,1493.93749 626.176688,1471.53696 662.861865,1423.35905" id="Stroke-33" stroke="url(#linearGradient-3)" stroke-width="0.75"></path>
                        <path d="M85.6365924,1876.62382 C102.229885,1778.10048 165.083295,1712.70553 232.353244,1656.72045 C277.797408,1618.89945 330.627488,1586.27875 362.321687,1531.2676 C431.616124,1410.99712 571.148923,1395.66407 657.421536,1300.07599" id="Stroke-35" stroke="url(#linearGradient-3)" stroke-width="0.75"></path>
                        <path d="M41.3749829,1799.02385 C61.1050764,1698.5829 122.262112,1628.60182 190.140177,1567.71568 C237.655015,1525.0956 291.879336,1488.29561 326.926833,1430.45904 C401.720293,1307.02915 544.138757,1281.55327 635.997955,1182.39669" id="Stroke-37" stroke="url(#linearGradient-3)" stroke-width="0.75"></path>
                    </g>
                    <path d="M2959.5,614.5 L2961,616" id="Line" stroke="#979797" stroke-width="1" stroke-linecap="square"></path>
                    <polyline id="Path-2" stroke="#14DA9E" stroke-width="0.5" stroke-linecap="round" stroke-linejoin="round" points="2958.37351 615 2978 588.126578 2944 479.817286 2950.85003 431"></polyline>
                    <g id="Group-2" stroke="none" stroke-width="1" fill-rule="evenodd" transform="translate(2485.000000, 330.000000)">
                        <g id="Assets/Indicator/#primary_100" opacity="0.77" transform="translate(510.109272, 462.324083) rotate(-253.000000) translate(-510.109272, -462.324083) translate(506.042079, 458.261362)" fill="#A8F1DB">
                            <circle id="Oval" opacity="0.699999988" cx="4" cy="4" r="4"></circle>
                            <circle id="Oval" cx="4" cy="4" r="2.22222222"></circle>
                        </g>
                        <g id="Assets/Indicator/#primary_100" opacity="0.84" transform="translate(493.967723, 257.305654) rotate(-164.000000) translate(-493.967723, -257.305654) translate(488.544798, 251.888693)" fill="#A8F1DB">
                            <circle id="Oval" opacity="0.699999988" cx="5.5" cy="5.5" r="5.5"></circle>
                            <circle id="Oval" cx="5.5" cy="5.5" r="3.05555556"></circle>
                        </g>
                        <g id="Assets/Indicator/#primary_100" opacity="0.94" transform="translate(650.231825, 7.589073) rotate(-51.000000) translate(-650.231825, -7.589073) translate(645.260810, 2.623525)" fill="#A8F1DB">
                            <circle id="Oval" opacity="0.699999988" cx="5" cy="5" r="5"></circle>
                            <circle id="Oval" cx="5" cy="5" r="2.77777778"></circle>
                        </g>
                        <g id="Assets/Indicator/#primary_100" opacity="0.86" transform="translate(677.875631, 502.801597) rotate(-144.000000) translate(-677.875631, -502.801597) translate(672.452706, 497.384636)" fill="#A8F1DB">
                            <circle id="Oval" opacity="0.699999988" cx="5.5" cy="5.5" r="5.5"></circle>
                            <circle id="Oval" cx="5.5" cy="5.5" r="3.05555556"></circle>
                        </g>
                        <g id="Assets/Indicator/#primary_100" opacity="0.86" transform="translate(621.727059, 92.628548) rotate(-144.000000) translate(-621.727059, -92.628548) translate(616.304134, 87.211587)" fill="#A8F1DB">
                            <circle id="Oval" opacity="0.699999988" cx="5.5" cy="5.5" r="5.5"></circle>
                            <circle id="Oval" cx="5.5" cy="5.5" r="3.05555556"></circle>
                        </g>
                        <g id="Assets/Indicator/#primary_100" opacity="0.79" transform="translate(528.555581, 290.687139) rotate(-126.000000) translate(-528.555581, -290.687139) translate(523.584567, 285.721591)" fill="#A8F1DB">
                            <circle id="Oval" opacity="0.699999988" cx="5" cy="5" r="5"></circle>
                            <circle id="Oval" cx="5" cy="5" r="2.77777778"></circle>
                        </g>
                        <g id="Assets/Indicator/#primary_100" opacity="0.99" transform="translate(288.575259, 89.566250) rotate(-115.000000) translate(-288.575259, -89.566250) translate(284.649157, 85.644466)" fill="#A8F1DB">
                            <circle id="Oval" opacity="0.699999988" cx="4" cy="4" r="4"></circle>
                            <circle id="Oval" cx="4" cy="4" r="2.22222222"></circle>
                        </g>
                        <g id="Assets/Indicator/#primary_100" opacity="0.8" transform="translate(458.748332, 149.500420) rotate(-30.000000) translate(-458.748332, -149.500420) translate(452.421586, 143.180632)" fill="#A8F1DB">
                            <circle id="Oval" opacity="0.699999988" cx="6.5" cy="6.5" r="6.5"></circle>
                            <circle id="Oval" cx="6.5" cy="6.5" r="3.61111111"></circle>
                        </g>
                        <g id="Assets/Indicator/#primary_100" opacity="0.7" transform="translate(230.167636, 201.569212) rotate(-170.000000) translate(-230.167636, -201.569212) translate(224.744711, 196.152251)" fill="#A8F1DB">
                            <circle id="Oval" opacity="0.699999988" cx="5.5" cy="5.5" r="5.5"></circle>
                            <circle id="Oval" cx="5.5" cy="5.5" r="3.05555556"></circle>
                        </g>
                        <g id="Assets/Indicator/#primary_100" opacity="0.7" transform="translate(473.673047, 284.722982) rotate(-170.000000) translate(-473.673047, -284.722982) translate(468.250122, 279.306021)" fill="#A8F1DB">
                            <circle id="Oval" opacity="0.699999988" cx="5.5" cy="5.5" r="5.5"></circle>
                            <circle id="Oval" cx="5.5" cy="5.5" r="3.05555556"></circle>
                        </g>
                        <g id="Assets/Indicator/#primary_100" opacity="0.94" transform="translate(115.851311, 179.239202) rotate(-6.000000) translate(-115.851311, -179.239202) translate(110.428387, 173.822241)" fill="#A8F1DB">
                            <circle id="Oval" opacity="0.699999988" cx="5.5" cy="5.5" r="5.5"></circle>
                            <circle id="Oval" cx="5.5" cy="5.5" r="3.05555556"></circle>
                        </g>
                        <g id="Assets/Indicator/#primary_100" opacity="0.94" transform="translate(4.186748, 236.455498) rotate(-6.000000) translate(-4.186748, -236.455498) translate(0.806497, 233.078964)" fill="#A8F1DB">
                            <circle id="Oval" opacity="0.699999988" cx="3.5" cy="3.5" r="3.5"></circle>
                            <circle id="Oval" cx="3.5" cy="3.5" r="1.94444444"></circle>
                        </g>
                        <g id="Assets/Indicator/#primary_100" opacity="0.95" transform="translate(499.711896, 394.658784) rotate(-161.000000) translate(-499.711896, -394.658784) translate(495.192792, 390.144650)" fill="#A8F1DB">
                            <circle id="Oval" opacity="0.699999988" cx="4.5" cy="4.5" r="4.5"></circle>
                            <circle id="Oval" cx="4.5" cy="4.5" r="2.5"></circle>
                        </g>
                        <g id="Assets/Indicator/#primary_100" opacity="0.95" transform="translate(619.896479, 431.358960) rotate(-161.000000) translate(-619.896479, -431.358960) translate(615.377374, 426.844826)" fill="#A8F1DB">
                            <circle id="Oval" opacity="0.699999988" cx="4.5" cy="4.5" r="4.5"></circle>
                            <circle id="Oval" cx="4.5" cy="4.5" r="2.5"></circle>
                        </g>
                        <g id="Assets/Indicator/#primary_100" transform="translate(458.748332, 94.778010)" fill="#A8F1DB">
                            <circle id="Oval" opacity="0.699999988" cx="5.5" cy="5.5" r="5.5"></circle>
                            <circle id="Oval" cx="5.5" cy="5.5" r="3.05555556"></circle>
                        </g>
                    </g>
                    <path d="M2603,510 L2715,531" id="Path-3" stroke="#14DA9E" stroke-width="0.5" stroke-linecap="round" stroke-linejoin="round"></path>
                    <polyline id="Path-4" stroke="#14DA9E" stroke-width="0.5" stroke-linecap="round" stroke-linejoin="round" points="3162 835 3105.20433 762 2997 791.08866"></polyline>
                </g>
            </g>
        </g>
    </g>
</svg>