<?xml version="1.0" encoding="UTF-8"?>
<svg width="24px" height="24px" viewBox="0 0 24 24" version="1.1" xmlns="http://www.w3.org/2000/svg" xmlns:xlink="http://www.w3.org/1999/xlink">
    <!-- Generator: sketchtool 51 (57462) - http://www.bohemiancoding.com/sketch -->
    <title>FE917F79-884C-46D5-9D28-305B08CFCB3C</title>
    <desc>Created with sketchtool.</desc>
    <defs>
        <path d="M12,22.2777778 C6.32374007,22.2777778 1.72222222,17.6762599 1.72222222,12 C1.72222222,6.32374007 6.32374007,1.72222222 12,1.72222222 C17.6762599,1.72222222 22.2777778,6.32374007 22.2777778,12 C22.2777778,17.6762599 17.6762599,22.2777778 12,22.2777778 Z M12,21.2777778 C17.1239752,21.2777778 21.2777778,17.1239752 21.2777778,12 C21.2777778,6.87602482 17.1239752,2.72222222 12,2.72222222 C6.87602482,2.72222222 2.72222222,6.87602482 2.72222222,12 C2.72222222,17.1239752 6.87602482,21.2777778 12,21.2777778 Z M7.5,8 L12.5,8 L12.5,18 L16.5,18 L16.5,19 L7.5,19 L7.5,18 L11.5,18 L11.5,9 L7.5,9 L7.5,8 Z M12,6.5 C12.4142136,6.5 12.75,6.16421356 12.75,5.75 C12.75,5.33578644 12.4142136,5 12,5 C11.5857864,5 11.25,5.33578644 11.25,5.75 C11.25,6.16421356 11.5857864,6.5 12,6.5 Z" id="path-1"></path>
    </defs>
    <g id="Symbols" stroke="none" stroke-width="1" fill="none" fill-rule="evenodd">
        <g id="Icon-Thin/id=&quot;ic_info_circle&quot;">
            <rect id="Bounding-Box" x="0" y="0" width="24" height="24"></rect>
            <rect id="blind_pixel" fill-opacity="0.01" fill="#FFFFFF" x="0" y="0" width="1" height="1"></rect>
            <rect id="blind_pixel" fill-opacity="0.01" fill="#FFFFFF" x="23" y="23" width="1" height="1"></rect>
            <mask id="mask-2" fill="white">
                <use xlink:href="#path-1"></use>
            </mask>
            <use id="Mask" fill="#979797" fill-rule="nonzero" xlink:href="#path-1"></use>
            <g id="Mixin/Fill/#navy_blue" mask="url(#mask-2)" fill="#090932">
                <rect id="#primary" x="0" y="0" width="24" height="24"></rect>
            </g>
        </g>
    </g>
</svg>