<?xml version="1.0" encoding="UTF-8"?>
<svg width="24px" height="24px" viewBox="0 0 24 24" version="1.1" xmlns="http://www.w3.org/2000/svg" xmlns:xlink="http://www.w3.org/1999/xlink">
    <!-- Generator: sketchtool 51 (57462) - http://www.bohemiancoding.com/sketch -->
    <title>F408D4B7-6B84-4E6B-8A66-7393F8CC1C36</title>
    <desc>Created with sketchtool.</desc>
    <defs>
        <path d="M18.4558929,19.5009263 C19.2596748,19.5289519 19.9026788,20.1893851 19.9026788,21 C19.9026788,21.8284271 19.2311059,22.5 18.4026788,22.5 C17.5742517,22.5 16.9026788,21.8284271 16.9026788,21 C16.9026788,20.5104029 17.1372432,20.0755912 17.5001235,19.8018137 L15.8172551,15.4419738 C15.6855856,15.4797603 15.5464958,15.5 15.4026788,15.5 C15.2664732,15.5 15.1345078,15.4818459 15.0090702,15.4478254 L9.80168334,20.4577856 C9.86690418,20.6259492 9.90267878,20.8087968 9.90267878,21 C9.90267878,21.8284271 9.23110591,22.5 8.40267878,22.5 C7.57425166,22.5 6.90267878,21.8284271 6.90267878,21 C6.90267878,20.1715729 7.57425166,19.5 8.40267878,19.5 C8.67424492,19.5 8.92895567,19.5721665 9.14867952,19.6983681 L14.1752218,14.8623962 C14.0047955,14.6202728 13.9041951,14.3254551 13.9026958,14.0072181 L6.43676751,10.2432949 C6.19721254,10.4053542 5.90831973,10.5 5.59732122,10.5 C4.76889409,10.5 4.09732122,9.82842712 4.09732122,9 C4.09732122,8.17157288 4.76889409,7.5 5.59732122,7.5 C5.85977553,7.5 6.10648656,7.56740497 6.32108736,7.68584796 L10.0158325,4.0725705 C9.94291261,3.89614261 9.90267878,3.70276986 9.90267878,3.5 C9.90267878,2.67157288 10.5742517,2 11.4026788,2 C12.2311059,2 12.9026788,2.67157288 12.9026788,3.5 C12.9026788,4.32842712 12.2311059,5 11.4026788,5 C11.1425355,5 10.8978594,4.93377684 10.6845889,4.81726892 L6.98670728,8.43361374 C7.05802106,8.60837242 7.09732122,8.79959669 7.09732122,9 C7.09732122,9.14781926 7.0759393,9.29064451 7.03609962,9.42555159 L14.237017,13.0558705 C14.5120284,12.7167492 14.9320414,12.5 15.4026788,12.5 C16.2311059,12.5 16.9026788,13.1715729 16.9026788,14 C16.9026788,14.3066616 16.8106543,14.5918298 16.652714,14.8293958 L18.4558929,19.5009263 Z" id="path-1"></path>
    </defs>
    <g id="Symbols" stroke="none" stroke-width="1" fill="none" fill-rule="evenodd">
        <g id="Icon/id=&quot;ic_graph_4&quot;">
            <rect id="Bounding-Box" x="0" y="0" width="24" height="24"></rect>
            <rect id="blind_pixel" fill-opacity="0.01" fill="#FFFFFF" x="0" y="0" width="1" height="1"></rect>
            <rect id="blind_pixel" fill-opacity="0.01" fill="#FFFFFF" x="23" y="23" width="1" height="1"></rect>
            <mask id="mask-2" fill="white">
                <use xlink:href="#path-1"></use>
            </mask>
            <use id="Mask" fill="#FFFFFF" fill-rule="nonzero" xlink:href="#path-1"></use>
            <g id="Mixin/Fill/#grey_400" mask="url(#mask-2)" fill="#526173">
                <g transform="translate(0.000000, 0.500000)" id="Rectangle">
                    <rect x="0" y="0" width="24" height="24"></rect>
                </g>
            </g>
        </g>
    </g>
</svg>