<svg xmlns="http://www.w3.org/2000/svg" width="24" height="24" viewBox="0 0 24 24">
    <g fill="none" fill-rule="evenodd">
        <path fill="#FFF" fill-opacity=".01" d="M0 0h1v1H0zM23 23h1v1h-1z"/>
        <path fill="#000" d="M11.267 16.44l-2.76 2.76c1.056.512 2.24.8 3.493.8a7.968 7.968 0 0 0 3.492-.8l-2.759-2.76a4.532 4.532 0 0 1-1.466 0zm-1.09-.324a4.517 4.517 0 0 1-2.293-2.293l-2.57 2.57a8.043 8.043 0 0 0 2.292 2.294l2.571-2.571zM7.56 12.733a4.532 4.532 0 0 1 0-1.466l-2.758-2.76A7.968 7.968 0 0 0 4 12c0 1.252.288 2.437.8 3.492l2.76-2.759zm.325-2.556a4.517 4.517 0 0 1 2.293-2.293l-2.57-2.57a8.043 8.043 0 0 0-2.294 2.292l2.571 2.571zm3.383-2.618a4.532 4.532 0 0 1 1.466 0l2.76-2.758A7.968 7.968 0 0 0 12 4a7.968 7.968 0 0 0-3.492.8l2.759 2.76zm2.556.325a4.517 4.517 0 0 1 2.293 2.293l2.57-2.57a8.043 8.043 0 0 0-2.292-2.294l-2.571 2.571zm2.618 3.383a4.532 4.532 0 0 1 0 1.466l2.758 2.76c.513-1.056.801-2.24.801-3.493a7.968 7.968 0 0 0-.8-3.492l-2.76 2.759zm-.325 2.556a4.517 4.517 0 0 1-2.293 2.293l2.57 2.57a8.043 8.043 0 0 0 2.294-2.292l-2.571-2.571zM12 21a9 9 0 1 1 0-18 9 9 0 0 1 0 18zm0-5.5a3.5 3.5 0 1 0 0-7 3.5 3.5 0 0 0 0 7z"/>
    </g>
</svg>
