<?xml version="1.0" encoding="UTF-8"?>
<svg width="24px" height="24px" viewBox="0 0 24 24" version="1.1" xmlns="http://www.w3.org/2000/svg" xmlns:xlink="http://www.w3.org/1999/xlink">
    <!-- Generator: Sketch 51.2 (57519) - http://www.bohemiancoding.com/sketch -->
    <title>thin_icons/black/id="ic_info"</title>
    <desc>Created with Sketch.</desc>
    <defs>
        <path d="M22,12 C22,6.4771525 17.5228475,2 12,2 C6.4771525,2 2,6.4771525 2,12 C2,17.5228475 6.4771525,22 12,22 C17.5228475,22 22,17.5228475 22,12 Z M12.8333333,15.3333333 L12.8333333,11.1666667 C12.8333333,10.7064294 12.4602373,10.3333333 12,10.3333333 L10.3333333,10.3333333 C9.87309604,10.3333333 9.5,10.7064294 9.5,11.1666667 C9.5,11.626904 9.87309604,12 10.3333333,12 L11.1666667,12 L11.1666667,15.3333333 L10.3333333,15.3333333 C9.87309604,15.3333333 9.5,15.7064294 9.5,16.1666667 C9.5,16.626904 9.87309604,17 10.3333333,17 L13.6666667,17 C14.126904,17 14.5,16.626904 14.5,16.1666667 C14.5,15.7064294 14.126904,15.3333333 13.6666667,15.3333333 L12.8333333,15.3333333 Z M3.66666667,12 C3.66666667,7.39762709 7.39762709,3.66666667 12,3.66666667 C16.6023729,3.66666667 20.3333333,7.39762709 20.3333333,12 C20.3333333,16.6023729 16.6023729,20.3333333 12,20.3333333 C7.39762709,20.3333333 3.66666667,16.6023729 3.66666667,12 Z M11.1666667,8.66666667 C11.1666667,9.12690396 11.5397627,9.5 12,9.5 C12.4602373,9.5 12.8333333,9.12690396 12.8333333,8.66666667 L12.8333333,7.83333333 C12.8333333,7.37309604 12.4602373,7 12,7 C11.5397627,7 11.1666667,7.37309604 11.1666667,7.83333333 L11.1666667,8.66666667 Z" id="path-1"></path>
    </defs>
    <g id="thin_icons/black/id=&quot;ic_info&quot;" stroke="none" stroke-width="1" fill="none" fill-rule="evenodd">
        <rect id="blind_pixel" fill-opacity="0.01" fill="#FFFFFF" x="0" y="0" width="1" height="1"></rect>
        <rect id="blind_pixel" fill-opacity="0.01" fill="#FFFFFF" x="23" y="23" width="1" height="1"></rect>
        <mask id="mask-2" fill="white">
            <use xlink:href="#path-1"></use>
        </mask>
        <use id="Mask" fill="#A2AAB3" xlink:href="#path-1"></use>
    </g>
</svg>